<svg width="27" height="27" viewBox="0 0 27 27" fill="none" xmlns="http://www.w3.org/2000/svg">
<path d="M15.6444 13.5072L26.5531 2.58727C26.6947 2.4474 26.8071 2.28082 26.8838 2.09718C26.9605 1.91354 27 1.7165 27 1.51748C27 1.31845 26.9605 1.12141 26.8838 0.937774C26.8071 0.754135 26.6947 0.587553 26.5531 0.447685C26.268 0.166632 25.8837 0.00907674 25.4834 0.00907674C25.0831 0.00907674 24.6988 0.166632 24.4137 0.447685L13.505 11.3676L2.58626 0.447685C2.44641 0.306099 2.27984 0.193685 2.09622 0.116962C1.9126 0.0402392 1.71558 0.000732422 1.51658 0.000732422C1.31758 0.000732422 1.12056 0.0402392 0.936941 0.116962C0.753322 0.193685 0.586757 0.306099 0.446904 0.447685C0.165881 0.732823 0.00834343 1.11711 0.00834343 1.51748C0.00834343 1.91784 0.165881 2.30213 0.446904 2.58727L11.3657 13.5072L0.446904 24.4171C0.305333 24.557 0.192932 24.7235 0.116217 24.9072C0.0395025 25.0908 0 25.2879 0 25.4869C0 25.6859 0.0395025 25.8829 0.116217 26.0666C0.192932 26.2502 0.305333 26.4168 0.446904 26.5567C0.730723 26.8402 1.11545 26.9994 1.51658 26.9994C1.91771 26.9994 2.30244 26.8402 2.58626 26.5567L13.505 15.6468L24.4137 26.5567C24.698 26.8397 25.0823 26.9993 25.4834 27.0007C25.7826 27.0005 26.075 26.9115 26.3237 26.7452C26.5724 26.5788 26.7662 26.3425 26.8806 26.066C26.9951 25.7896 27.0251 25.4854 26.9668 25.1919C26.9085 24.8984 26.7645 24.6288 26.5531 24.4171L15.6444 13.5072Z" fill="#F25B26"/>
</svg>
