<svg width="31" height="21" viewBox="0 0 31 21" fill="none" xmlns="http://www.w3.org/2000/svg">
<path d="M30.5559 0.430242C30.4134 0.294145 30.2439 0.186122 30.0571 0.112404C29.8703 0.038686 29.67 0.000732422 29.4676 0.000732422C29.2653 0.000732422 29.065 0.038686 28.8782 0.112404C28.6914 0.186122 28.5219 0.294145 28.3794 0.430242L10.3744 17.4965L2.5777 10.1105C2.28714 9.85398 1.90283 9.71435 1.50573 9.72099C1.10864 9.72762 0.72977 9.88001 0.448939 10.1461C0.168108 10.4121 0.00724504 10.771 0.0002388 11.1472C-0.00676744 11.5234 0.140631 11.8874 0.41138 12.1627L9.29124 20.5748C9.4331 20.7101 9.60187 20.8174 9.7878 20.8905C9.97372 20.9636 10.1731 21.0011 10.3744 21.0007C10.7806 20.9993 11.1698 20.8463 11.4576 20.5748L30.5559 2.48245C30.8405 2.20896 31 1.84036 31 1.45635C31 1.07233 30.8405 0.703735 30.5559 0.430242Z" fill="#3DC644"/>
</svg>
